<?xml version="1.0"?>

<svg width="1032" height="120" viewBox="0 0 1032 120" style="background: rgba(0, 0, 0, 0.7)" version="1.1" xmlns="http://www.w3.org/2000/svg" xmlns:xlink="http://www.w3.org/1999/xlink">
<defs>
    <g id="oneL">
        <path id="l1" d="M 0 31 v 12 M 8 31 v 12 M 16 31 v 12 M 24 31 v 12 
        M 32 31 v 12 M 40 31 v 12 M 48 31 v 12 M 56 31 v 12 M 64 31 v 12">
        </path>
    </g>
    <g id="boldL">
        <path id="l1" d="M 0 31 v 16" stroke-width="2">
        </path>
    </g>
</defs>

<use xlink:href="#boldL" x="72" y="0" stroke="white"/>
<use xlink:href="#boldL" x="152" y="0" stroke="white"/>
<use xlink:href="#boldL" x="232" y="0" stroke="white"/>
<use xlink:href="#boldL" x="312" y="0" stroke="white"/>
<use xlink:href="#boldL" x="392" y="0" stroke="white"/>
<use xlink:href="#boldL" x="472" y="0" stroke="white"/>
<use xlink:href="#boldL" x="552" y="0" stroke="white"/>
<use xlink:href="#boldL" x="632" y="0" stroke="white"/>
<use xlink:href="#boldL" x="712" y="0" stroke="white"/>
<use xlink:href="#boldL" x="792" y="0" stroke="white"/>
<use xlink:href="#boldL" x="872" y="0" stroke="white"/>
<use xlink:href="#boldL" x="952" y="0" stroke="white"/>

<use xlink:href="#oneL" x="0" y="0" stroke="white"/>
<use xlink:href="#oneL" x="80" y="0" stroke="white"/>
<use xlink:href="#oneL" x="160" y="0" stroke="white"/>
<use xlink:href="#oneL" x="240" y="0" stroke="white"/>
<use xlink:href="#oneL" x="320" y="0" stroke="white"/>
<use xlink:href="#oneL" x="400" y="0" stroke="white"/>
<use xlink:href="#oneL" x="480" y="0" stroke="white"/>
<use xlink:href="#oneL" x="560" y="0" stroke="white"/>
<use xlink:href="#oneL" x="640" y="0" stroke="white"/>
<use xlink:href="#oneL" x="720" y="0" stroke="white"/>
<use xlink:href="#oneL" x="800" y="0" stroke="white"/>
<use xlink:href="#oneL" x="880" y="0" stroke="white"/>
<use xlink:href="#oneL" x="960" y="0" stroke="white"/>
</svg>